<svg xmlns="http://www.w3.org/2000/svg" width="426" height="98" viewBox="0 0 426 98"><defs><linearGradient id="body" x1="0" y1="0" x2="0" y2="1"><stop stop-color="#393935"/><stop offset=".52" stop-color="#151612"/><stop offset="1" stop-color="#22231e"/></linearGradient><linearGradient id="rim" x1="0" y1="0" x2="0" y2="1"><stop stop-color="#bf9147"/><stop offset=".25" stop-color="#f1d59b"/><stop offset=".5" stop-color="#c39a53"/><stop offset=".75" stop-color="#e1bc76"/><stop offset="1" stop-color="#a87935"/></linearGradient><linearGradient id="highlight" x1="0" y1="0" x2="0" y2="1"><stop stop-color="white" stop-opacity=".32"/><stop offset=".42" stop-color="white" stop-opacity="0"/><stop offset="1" stop-color="white" stop-opacity="0"/></linearGradient></defs><rect x="10" y="10" width="406" height="78" rx="39.0" fill="url(#body)" fill-opacity=".94" stroke="url(#rim)" stroke-width="1.7"/><rect x="12.5" y="12.5" width="401" height="73" rx="36.5" fill="url(#highlight)" stroke="#fff4d7" stroke-opacity=".25" stroke-width=".65"/><path d="M 372 49.0 H 396 M 387 40.0 L 396 49.0 L 387 58.0" transform="" fill="none" stroke="#e1c484" stroke-width="2.2" stroke-linecap="round" stroke-linejoin="round"/><path fill="#f3ebd7" d="M1221 1462 696 0H525L0 1462H178L520 499Q581 326 610 191Q624 260 647.0 337.0Q670 414 701 502L1041 1462Z" transform="translate(69.564697265625 58.375) scale(0.01220703125 -0.01220703125)"/><path fill="#f3ebd7" d="M260 1506Q301 1506 330.5 1479.5Q360 1453 360 1397Q360 1342 330.5 1315.0Q301 1288 260 1288Q217 1288 188.5 1315.0Q160 1342 160 1397Q160 1453 188.5 1479.5Q217 1506 260 1506ZM341 1096V0H175V1096Z" transform="translate(84.469482421875 58.375) scale(0.01220703125 -0.01220703125)"/><path fill="#f3ebd7" d="M597 1116Q737 1116 837.0 1054.0Q937 992 990.0 880.5Q1043 769 1043 620V517H286Q289 324 382.0 223.0Q475 122 644 122Q748 122 828.0 141.0Q908 160 994 197V51Q911 14 829.5 -3.0Q748 -20 637 -20Q400 -20 257.0 124.5Q114 269 114 540Q114 717 173.5 846.5Q233 976 341.5 1046.0Q450 1116 597 1116ZM595 980Q462 980 383.0 893.0Q304 806 289 650H869Q868 797 801.5 888.5Q735 980 595 980Z" transform="translate(90.780517578125 58.375) scale(0.01220703125 -0.01220703125)"/><path fill="#f3ebd7" d="M1067 2 872 640Q847 721 827.0 797.0Q807 873 797 919H790Q781 873 762.5 796.5Q744 720 717 637L513 2H326L24 1098H196L354 493Q378 403 398.0 317.5Q418 232 425 175H433Q444 225 464.0 309.0Q484 393 506 463L708 1098H887L1082 464Q1104 392 1125.5 313.0Q1147 234 1155 177H1163Q1169 227 1189.5 313.5Q1210 400 1234 493L1394 1098H1563L1260 2Z" transform="translate(104.818603515625 58.375) scale(0.01220703125 -0.01220703125)"/><path fill="#f3ebd7" d="M1117 0 937 464H351L172 0H0L572 1468H725L1293 0ZM886 615 715 1076Q709 1094 695.5 1135.0Q682 1176 668.0 1220.0Q654 1264 645 1291Q630 1230 612.0 1171.0Q594 1112 582 1076L408 615Z" transform="translate(130.685302734375 58.375) scale(0.01220703125 -0.01220703125)"/><path fill="#f3ebd7" d="M342 0H175V1556H342Z" transform="translate(146.493408203125 58.375) scale(0.01220703125 -0.01220703125)"/><path fill="#f3ebd7" d="M342 0H175V1556H342Z" transform="translate(152.804443359375 58.375) scale(0.01220703125 -0.01220703125)"/><path fill="#f3ebd7" d="M1361 745Q1361 375 1161.0 187.5Q961 0 597 0H200V1462H641Q975 1462 1168.0 1279.5Q1361 1097 1361 745ZM1182 739Q1182 1035 1036.0 1176.0Q890 1317 615 1317H370V146H577Q1182 146 1182 739Z" transform="translate(165.609619140625 58.375) scale(0.01220703125 -0.01220703125)"/><path fill="#f3ebd7" d="M1120 550Q1120 280 984.5 130.0Q849 -20 613 -20Q467 -20 354.0 47.5Q241 115 177.5 242.5Q114 370 114 550Q114 820 249.5 968.0Q385 1116 620 1116Q770 1116 882.5 1049.0Q995 982 1057.5 855.5Q1120 729 1120 550ZM286 550Q286 351 365.5 234.5Q445 118 617 118Q788 118 868.0 235.0Q948 352 948 550Q948 747 868.5 861.5Q789 976 616 976Q445 976 365.5 863.0Q286 750 286 550Z" transform="translate(183.749267578125 58.375) scale(0.01220703125 -0.01220703125)"/><path fill="#f3ebd7" d="M614 -20Q466 -20 353.0 41.0Q240 102 177.0 227.0Q114 352 114 542Q114 741 180.5 867.5Q247 994 364.0 1055.0Q481 1116 630 1116Q712 1116 788.5 1099.5Q865 1083 914 1058L864 919Q814 939 748.5 955.0Q683 971 626 971Q455 971 370.5 861.5Q286 752 286 544Q286 345 368.0 234.5Q450 124 613 124Q700 124 770.0 142.5Q840 161 897 186V38Q842 10 774.5 -5.0Q707 -20 614 -20Z" transform="translate(198.788330078125 58.375) scale(0.01220703125 -0.01220703125)"/><path fill="#f3ebd7" d="M1080 1096V0H944L920 154H911Q860 68 765.5 24.0Q671 -20 558 -20Q362 -20 262.5 75.5Q163 171 163 378V1096H331V390Q331 118 582 118Q764 118 838.5 221.0Q913 324 913 519V1096Z" transform="translate(210.763427734375 58.375) scale(0.01220703125 -0.01220703125)"/><path fill="#f3ebd7" d="M1365 1116Q1546 1116 1638.0 1021.5Q1730 927 1730 718V0H1566V710Q1566 976 1338 976Q1179 976 1107.0 884.0Q1035 792 1035 613V0H870V710Q870 976 641 976Q478 976 409.5 875.0Q341 774 341 580V0H175V1096H309L334 941H343Q393 1026 479.0 1071.0Q565 1116 670 1116Q795 1116 879.5 1069.5Q964 1023 1002 928H1011Q1065 1023 1159.0 1069.5Q1253 1116 1365 1116Z" transform="translate(226.095458984375 58.375) scale(0.01220703125 -0.01220703125)"/><path fill="#f3ebd7" d="M597 1116Q737 1116 837.0 1054.0Q937 992 990.0 880.5Q1043 769 1043 620V517H286Q289 324 382.0 223.0Q475 122 644 122Q748 122 828.0 141.0Q908 160 994 197V51Q911 14 829.5 -3.0Q748 -20 637 -20Q400 -20 257.0 124.5Q114 269 114 540Q114 717 173.5 846.5Q233 976 341.5 1046.0Q450 1116 597 1116ZM595 980Q462 980 383.0 893.0Q304 806 289 650H869Q868 797 801.5 888.5Q735 980 595 980Z" transform="translate(249.239990234375 58.375) scale(0.01220703125 -0.01220703125)"/><path fill="#f3ebd7" d="M694 1116Q889 1116 989.0 1020.5Q1089 925 1089 714V0H925V703Q925 976 671 976Q489 976 415.0 873.0Q341 770 341 574V0H175V1096H309L334 938H343Q396 1025 489.5 1070.5Q583 1116 694 1116Z" transform="translate(263.278076171875 58.375) scale(0.01220703125 -0.01220703125)"/><path fill="#f3ebd7" d="M529 116Q570 116 613.0 123.0Q656 130 683 140V11Q654 -2 602.5 -11.0Q551 -20 502 -20Q415 -20 344.0 10.5Q273 41 230.5 114.0Q188 187 188 316V966H32V1047L189 1112L255 1350H355V1096H676V966H355V321Q355 218 402.5 167.0Q450 116 529 116Z" transform="translate(278.610107421875 58.375) scale(0.01220703125 -0.01220703125)"/><path fill="#f3ebd7" d="M884 300Q884 143 767.5 61.5Q651 -20 449 -20Q334 -20 250.0 -2.0Q166 16 103 49V202Q170 169 263.0 142.0Q356 115 453 115Q595 115 659.0 161.0Q723 207 723 286Q723 354 663.5 399.5Q604 445 446 504Q341 544 264.5 583.5Q188 623 146.5 680.0Q105 737 105 828Q105 967 217.5 1041.5Q330 1116 513 1116Q612 1116 698.5 1096.5Q785 1077 860 1044L804 911Q736 940 659.0 960.0Q582 980 502 980Q387 980 325.5 942.0Q264 904 264 838Q264 787 292.5 754.0Q321 721 384.0 692.0Q447 663 550 624Q653 586 728.0 545.5Q803 505 843.5 447.5Q884 390 884 300Z" transform="translate(287.521240234375 58.375) scale(0.01220703125 -0.01220703125)"/></svg>